<?xml version="1.0" encoding="UTF-8" standalone="no"?>
<!-- Created with Inkscape (http://www.inkscape.org/) -->

<svg
   xmlns:dc="http://purl.org/dc/elements/1.1/"
   xmlns:cc="http://creativecommons.org/ns#"
   xmlns:rdf="http://www.w3.org/1999/02/22-rdf-syntax-ns#"
   xmlns:svg="http://www.w3.org/2000/svg"
   xmlns="http://www.w3.org/2000/svg"
   xmlns:sodipodi="http://sodipodi.sourceforge.net/DTD/sodipodi-0.dtd"
   xmlns:inkscape="http://www.inkscape.org/namespaces/inkscape"
   version="1.1"
   width="765"
   height="990"
   id="svg2"
   inkscape:version="0.47 r22583"
   sodipodi:docname="paper-background.svg">
  <metadata
     id="metadata20">
    <rdf:RDF>
      <cc:Work
         rdf:about="">
        <dc:format>image/svg+xml</dc:format>
        <dc:type
           rdf:resource="http://purl.org/dc/dcmitype/StillImage" />
      </cc:Work>
    </rdf:RDF>
  </metadata>
  <sodipodi:namedview
     pagecolor="#ffffff"
     bordercolor="#666666"
     borderopacity="1"
     objecttolerance="10"
     gridtolerance="10"
     guidetolerance="10"
     inkscape:pageopacity="0"
     inkscape:pageshadow="2"
     inkscape:window-width="1360"
     inkscape:window-height="693"
     id="namedview18"
     showgrid="false"
     inkscape:zoom="0.4199223"
     inkscape:cx="-184.27152"
     inkscape:cy="486.61017"
     inkscape:window-x="0"
     inkscape:window-y="25"
     inkscape:window-maximized="1"
     inkscape:current-layer="svg2" />
  <defs
     id="defs4">
    <inkscape:perspective
       sodipodi:type="inkscape:persp3d"
       inkscape:vp_x="0 : 495 : 1"
       inkscape:vp_y="0 : 1000 : 0"
       inkscape:vp_z="765 : 495 : 1"
       inkscape:persp3d-origin="382.5 : 330 : 1"
       id="perspective22" />
  </defs>
  <rect
     style="opacity:1;fill:#ffffff;fill-opacity:1;stroke:none"
     id="rect2828"
     width="765"
     height="990"
     x="0"
     y="0" />
  <g
     transform="translate(0,-62.362183)"
     id="layer1">
    <g
       transform="matrix(2.5018736,0,0,2.5018716,2925.8556,-37.499295)"
       id="text10038"
       style="font-size:127.22013092px;font-style:normal;font-variant:normal;font-weight:normal;font-stretch:condensed;text-align:start;line-height:100%;writing-mode:lr-tb;text-anchor:start;opacity:0.05;fill:#000000;fill-opacity:1;stroke:none;font-family:AlternateGothic2 BT;-inkscape-font-specification:AlternateGothic2 BT Condensed">
      <path
         d="m -1111.0999,385.73671 0,-50.1302 c 0,-3.10589 -0.6005,-5.425 -1.8014,-6.95735 -1.201,-1.57361 -2.9818,-2.36045 -5.3423,-2.36053 -2.3605,8e-5 -4.1413,0.78692 -5.3422,2.36053 -1.201,1.53235 -1.8015,3.85146 -1.8015,6.95735 l 0,50.1302 c 0,3.10598 0.6005,5.4458 1.8015,7.01947 1.2009,1.5737 2.9817,2.36054 5.3422,2.36053 2.3605,10e-6 4.1413,-0.78683 5.3423,-2.36053 1.2009,-1.57367 1.8014,-3.91349 1.8014,-7.01947 m 12.3618,9.44212 c 0.4969,0.9525 1.1388,1.65652 1.9256,2.11205 0.7868,0.41414 1.8222,0.6212 3.106,0.62119 l 0.6833,0 0,13.72835 -1.553,0 c -3.2302,-1e-5 -5.922,-0.57979 -8.0755,-1.73934 -2.112,-1.15956 -3.8307,-2.98172 -5.1558,-5.46649 -1.7808,1.03532 -3.603,1.80145 -5.4665,2.29841 -1.8222,0.49695 -3.7686,0.74543 -5.8392,0.74543 -6.4605,0 -11.4714,-2.17417 -15.0329,-6.52252 -3.5615,-4.34833 -5.3422,-10.49813 -5.3422,-18.4494 l 0,-46.03033 c 0,-7.08151 1.9256,-12.63082 5.777,-16.64795 3.8514,-4.01695 9.173,-6.02547 15.9647,-6.02556 6.4189,9e-5 11.492,2.07073 15.2192,6.21192 3.7685,4.09995 5.6528,9.71138 5.6528,16.8343 l 0,46.03033 c 0,2.89892 -0.145,5.28015 -0.4348,7.14371 -0.2899,1.86359 -0.7662,3.58222 -1.4287,5.1559"
         id="path3884"
         style="fill:#000000" />
      <path
         d="m -1064.3241,389.02903 0,-17.20702 c -4.3898,2.85751 -7.4129,5.50793 -9.0694,7.95125 -1.6565,2.44338 -2.4848,5.4044 -2.4848,8.88305 0,2.07066 0.3313,3.66505 0.9939,4.78318 0.6626,1.11816 1.5944,1.67723 2.7954,1.67722 1.4494,10e-6 2.8782,-0.53836 4.2862,-1.6151 1.4494,-1.11813 2.609,-2.60899 3.4787,-4.47258 m 0.3727,9.0694 c -1.9464,2.65042 -4.1206,4.70036 -6.5225,6.1498 -2.402,1.44945 -4.8453,2.17417 -7.3301,2.17417 -3.4372,0 -6.1084,-1.26309 -8.0134,-3.78927 -1.8635,-2.52617 -2.7953,-6.12908 -2.7953,-10.80874 0,-6.12907 1.7186,-11.32638 5.1559,-15.59192 3.4786,-4.3069 9.8562,-8.94513 19.1327,-13.9147 l 0,-7.14371 c 0,-1.98776 -0.352,-3.49933 -1.056,-4.5347 -0.7041,-1.03527 -1.7394,-1.55293 -3.106,-1.55298 -1.7394,5e-5 -3.106,0.49701 -4.0999,1.49086 -0.9939,0.99396 -1.4908,2.36058 -1.4908,4.09987 l 0,3.66503 -12.486,0 c 0,-0.20702 -0.021,-0.49691 -0.062,-0.86967 -0.041,-0.37267 -0.062,-0.66256 -0.062,-0.86967 0,-5.54926 1.76,-10.10466 5.2801,-13.66622 3.5201,-3.56144 7.9513,-5.34219 13.2935,-5.34226 5.5907,7e-5 9.732,1.698 12.4239,5.09378 2.7332,3.39591 4.0998,8.61392 4.0998,15.65404 l 0,28.26424 c 0,4.43118 0.1035,8.30327 0.3106,11.61629 0.207,3.31303 0.4969,5.75638 0.8697,7.33006 l -12.3617,0 c -0.3314,-0.86966 -0.6005,-1.88428 -0.8076,-3.04384 -0.1657,-1.20096 -0.2899,-2.67112 -0.3727,-4.41046"
         id="path3886"
         style="fill:#000000" />
      <path
         d="m -1047.055,328.71128 0,-12.98292 42.6138,0 0,12.98292 -14.4117,0 0,76.84145 -13.8525,0 0,-76.84145 -14.3496,0"
         id="path3888"
         style="fill:#000000" />
      <path
         d="m -994.56423,363.68439 10.80874,0 0,-6.70887 c -3e-5,-2.77461 -0.43486,-4.76242 -1.3045,-5.96345 -0.82829,-1.20091 -2.1742,-1.8014 -4.03775,-1.80145 -1.94643,5e-5 -3.35446,0.60054 -4.22411,1.80145 -0.82827,1.20103 -1.2424,3.18884 -1.24238,5.96345 l 0,6.70887 m -12.73447,23.17046 0,-29.7551 c 0,-5.75632 1.7394,-10.43596 5.218,-14.03894 3.47871,-3.64426 7.97199,-5.46642 13.47991,-5.46649 5.63211,7e-5 9.95975,1.67729 12.98291,5.03166 3.0231,3.3545 4.53467,8.17908 4.53471,14.47377 l 0,16.89643 -23.48106,0 0,12.48596 c -2e-5,3.47869 0.3934,5.90134 1.18026,7.26795 0.82824,1.32522 2.21557,1.98782 4.16199,1.98781 2.0292,10e-6 3.43723,-0.55906 4.2241,-1.67722 0.82823,-1.15954 1.24236,-3.68572 1.24239,-7.57854 l 0,-4.59682 12.67232,0 0,4.96953 c -4e-5,6.79172 -1.55302,11.90619 -4.65894,15.34345 -3.06458,3.43726 -7.6614,5.15589 -13.79047,5.15589 -5.50792,0 -9.85626,-1.82216 -13.04502,-5.46649 -3.1474,-3.64432 -4.7211,-8.65526 -4.7211,-15.03285"
         id="path3890"
         style="fill:#000000" />
      <path
         d="m -964.99549,387.60028 11.92688,-2.67112 c 0.53836,3.85141 1.44944,6.62606 2.73325,8.32397 1.28378,1.65652 3.08523,2.48478 5.40437,2.48477 1.73931,10e-6 3.12664,-0.51765 4.16199,-1.55298 1.03529,-1.07672 1.55295,-2.50546 1.55298,-4.28623 -3e-5,-3.43724 -4.18272,-8.32394 -12.54808,-14.66013 -0.0828,-0.0828 -0.18638,-0.16562 -0.3106,-0.24847 -4.1827,-3.14734 -7.16442,-6.21189 -8.94517,-9.19365 -1.73934,-2.98168 -2.60901,-6.35682 -2.609,-10.12543 -10e-6,-5.42502 1.67721,-9.79407 5.03165,-13.10715 3.35443,-3.31296 7.74418,-4.96947 13.16928,-4.96954 5.09374,7e-5 9.21431,1.53234 12.36172,4.59683 3.14733,3.0646 4.90738,7.268 5.28013,12.61019 l -11.67841,2.79537 c -0.45557,-2.81602 -1.22171,-4.90737 -2.29841,-6.27404 -1.07676,-1.40798 -2.5055,-2.112 -4.28623,-2.11205 -1.65653,5e-5 -2.96103,0.53842 -3.91351,1.6151 -0.95251,1.03537 -1.42875,2.4434 -1.42874,4.2241 -10e-6,2.89894 2.91959,6.6468 8.75881,11.24358 1.57366,1.28383 2.79534,2.27774 3.66503,2.98172 4.59679,3.85142 7.74416,7.24727 9.44212,10.18755 1.69789,2.89892 2.54685,6.17053 2.54689,9.81483 -4e-5,5.4665 -1.69796,9.85626 -5.09378,13.16927 -3.35446,3.27162 -7.80634,4.90742 -13.35562,4.90742 -5.30086,0 -9.69061,-1.73934 -13.16928,-5.21801 -3.47868,-3.47867 -5.61143,-8.32396 -6.39827,-14.5359"
         id="path3892"
         style="fill:#000000" />
      <path
         d="m -914.98954,391.57591 0,-41.99258 -7.64066,0 0,-10.31179 7.64066,0 0,-19.07059 12.2996,0 0,19.07059 9.19365,0 0,10.31179 -9.19365,0 0,40.81232 c -2e-5,1.905 0.45552,3.33374 1.36663,4.28622 0.95247,0.95251 2.31909,1.42875 4.09986,1.42875 0.4141,0 0.91106,-0.0414 1.49087,-0.12424 0.62116,-0.12423 1.34588,-0.28988 2.17417,-0.49696 l 0.0621,10.80874 c -1.15959,0.37272 -2.31915,0.6419 -3.47868,0.80755 -1.15958,0.16565 -2.38126,0.24848 -3.66503,0.24848 -4.80391,0 -8.40682,-1.3045 -10.80874,-3.91351 -2.36054,-2.65041 -3.54081,-6.60533 -3.5408,-11.86477"
         id="path3894"
         style="fill:#000000" />
    </g>
    <g
       transform="matrix(1.4273523,-0.13167694,0.13167694,1.4273523,2005.5634,-76.377967)"
       id="g9905"
       style="opacity:0.05">
      <path
         d="m -1392.6751,191.78354 c -3.0272,3.63357 -107.0038,-40.20371 -111.594,-39.06474 -4.6117,1.14434 -76.62,88.62684 -81.0319,86.86236 -4.3912,-1.75621 5.17,-114.19028 2.6683,-118.20382 -2.5134,-4.03244 -107.966,-45.482827 -107.6512,-50.224019 0.3133,-4.718969 110.199,-30.36976 113.243,-33.989236 3.0584,-3.636522 9.8934,-116.736775 14.4999,-117.902509 4.5848,-1.16027 62.9367,95.420735 67.3197,97.197315 4.4036,1.784947 114.0805,-26.664467 116.6126,-22.6437384 2.5203,4.0018818 -71.302,89.3430174 -71.6372,94.0604804 -0.3368,4.73968 60.6122,100.257227 57.5708,103.907907 z"
         transform="translate(379.7051,132.52442)"
         id="path9907"
         style="fill:#ccff00;fill-opacity:1;stroke:none" />
      <path
         d="m -1392.6751,191.78354 c -11.3521,13.62589 -94.3809,-43.33589 -111.594,-39.06474 -17.2941,4.29126 -64.4874,93.47917 -81.0319,86.86236 -16.467,-6.5858 12.0496,-103.15305 2.6683,-118.20382 -9.4254,-15.12165 -108.8317,-32.444547 -107.6512,-50.224019 1.1749,-17.696131 101.8279,-20.416202 113.243,-33.989236 11.469,-13.636958 -2.7742,-113.531005 14.4999,-117.902509 17.193,-4.351013 50.8835,90.5351403 67.3197,97.197315 16.5136,6.693552 107.1171,-37.721472 116.6126,-22.6437384 9.451,15.0070567 -70.3801,76.3699954 -71.6372,94.0604804 -1.2629,17.773797 68.9763,90.217857 57.5708,103.907907 z"
         transform="translate(379.7051,132.52442)"
         id="path9911"
         style="fill:#000000;stroke:#000000;stroke-width:20;stroke-linecap:round;stroke-linejoin:round;stroke-miterlimit:4;stroke-opacity:1;stroke-dasharray:none;stroke-dashoffset:0" />
      <g
         transform="translate(-160.42608,-98.66526)"
         id="g9915"
         style="fill:#ffffff">
        <rect
           width="19.445547"
           height="46.761734"
           rx="22.871376"
           ry="12.753623"
           x="-1025.5424"
           y="267.23816"
           id="rect9917"
           style="fill:#ffffff;fill-opacity:1;stroke:none" />
        <rect
           width="19.445547"
           height="46.761734"
           rx="22.871376"
           ry="12.753623"
           x="-990.47107"
           y="267.23816"
           id="rect9919"
           style="fill:#ffffff;fill-opacity:1;stroke:none" />
      </g>
    </g>
  </g>
</svg>
