<?xml version="1.0" encoding="UTF-8" standalone="no"?>
<!-- Created with Inkscape (http://www.inkscape.org/) -->

<svg
   xmlns:svg="http://www.w3.org/2000/svg"
   xmlns="http://www.w3.org/2000/svg"
   version="1.1"
   width="427.18527"
   height="168"
   id="svg10200">
  <defs
     id="defs10202" />
  <g
     transform="translate(-297.21219,-657.98446)"
     id="layer1">
    <g
       transform="matrix(0.49190365,0,0,0.49190365,151.01243,419.67969)"
       id="g10245">
      <g
         id="text9901"
         style="font-size:258.62814331px;font-style:normal;font-variant:normal;font-weight:normal;font-stretch:condensed;text-align:start;line-height:100%;writing-mode:lr-tb;text-anchor:start;fill:#000000;fill-opacity:1;stroke:none;font-family:AlternateGothic2 BT;-inkscape-font-specification:AlternateGothic2 BT Condensed">
        <path
           d="m 723.2747,773.32434 0,-101.9106 c -7e-5,-6.31402 -1.2208,-11.02859 -3.66221,-14.14373 -2.44154,-3.19902 -6.06166,-4.7986 -10.86037,-4.79876 -4.79881,1.6e-4 -8.41893,1.59974 -10.86036,4.79876 -2.44151,3.11514 -3.66225,7.82971 -3.66221,14.14373 l 0,101.9106 c -4e-5,6.3142 1.2207,11.07086 3.66221,14.27001 2.44143,3.1992 6.06155,4.79878 10.86036,4.79876 4.79871,2e-5 8.41883,-1.59956 10.86037,-4.79876 2.44141,-3.19915 3.66214,-7.95581 3.66221,-14.27001 m 25.13037,19.19506 c 1.01017,1.93636 2.3151,3.36757 3.91478,4.29363 1.59949,0.8419 3.70421,1.26285 6.31417,1.26283 l 1.38911,0 0,27.9086 -3.15708,0 c -6.56682,-10e-6 -12.03909,-1.17865 -16.41682,-3.53593 -4.29372,-2.35729 -7.78755,-6.0616 -10.48152,-11.11293 -3.62019,2.10473 -7.32449,3.66222 -11.11292,4.67249 -3.70437,1.01026 -7.66125,1.51539 -11.87063,1.5154 -13.1335,-1e-5 -23.32034,-4.41992 -30.56055,-13.25975 -7.24026,-8.83981 -10.86038,-21.34184 -10.86036,-37.50613 l 0,-93.57591 c -2e-5,-14.39613 3.91476,-25.67743 11.74434,-33.84391 7.82953,-8.16614 18.64779,-12.24929 32.4548,-12.24948 13.0492,1.9e-4 23.36233,4.20962 30.9394,12.62833 7.66109,8.33486 11.49168,19.74244 11.49178,34.22276 l 0,93.57591 c -10e-5,5.89326 -0.29476,10.73411 -0.88398,14.52258 -0.58942,3.78852 -1.55759,7.28236 -2.90452,10.48151"
           id="path2927" />
        <path
           d="m 818.36601,780.01735 0,-34.98046 c -8.92407,5.80909 -15.06985,11.19717 -18.43736,16.16426 -3.36759,4.96718 -5.05136,10.98668 -5.05133,18.0585 -3e-5,4.20948 0.67348,7.45074 2.02053,9.72382 1.34699,2.27312 3.24123,3.40966 5.68275,3.40964 2.94656,2e-5 5.85108,-1.09443 8.71354,-3.28336 2.94656,-2.27307 5.30385,-5.30387 7.07187,-9.0924 m 0.7577,18.43736 c -3.95693,5.3881 -8.37684,9.55544 -13.25975,12.50204 -4.88299,2.94661 -9.85013,4.41992 -14.90142,4.41992 -6.9877,0 -12.41788,-2.56776 -16.29055,-7.70328 -3.7885,-5.13551 -5.68275,-12.45993 -5.68274,-21.97329 -10e-6,-12.45991 3.49382,-23.0256 10.48151,-31.6971 7.07184,-8.75557 20.03691,-18.18471 38.89525,-28.28745 l 0,-14.52258 c -6e-5,-4.04096 -0.71566,-7.11385 -2.14682,-9.21868 -1.43126,-2.10461 -3.53598,-3.15697 -6.31416,-3.15708 -3.53598,1.1e-4 -6.31421,1.01038 -8.3347,3.0308 -2.02057,2.02064 -3.03083,4.79887 -3.0308,8.33469 l 0,7.45072 -25.38294,0 c -1e-5,-0.42085 -0.0421,-1.01017 -0.12628,-1.76797 -0.0842,-0.7576 -0.12629,-1.34692 -0.12628,-1.76797 -1e-5,-11.28119 3.57801,-20.54195 10.73408,-27.78232 7.15602,-7.2401 16.16422,-10.86022 27.02462,-10.86036 11.36543,1.4e-4 19.78431,3.45188 25.25665,10.35523 5.55639,6.90361 8.33462,17.51139 8.3347,31.82339 l 0,57.45889 c -8e-5,9.00823 0.21039,16.87988 0.63141,23.61497 0.42087,6.73511 1.01019,11.70225 1.76797,14.90142 l -25.13037,0 c -0.67357,-1.76796 -1.2208,-3.83059 -1.64168,-6.18788 -0.33682,-2.44146 -0.58938,-5.43017 -0.7577,-8.96611"
           id="path2929" />
        <path
           d="m 853.47276,657.39629 0,-26.3932 86.63033,0 0,26.3932 -29.29772,0 0,156.21241 -28.16117,0 0,-156.21241 -29.17144,0"
           id="path2931" />
        <path
           d="m 960.18213,728.49378 21.97329,0 0,-13.6386 c -5e-5,-5.64054 -0.88404,-9.68161 -2.65195,-12.12319 -1.68383,-2.44136 -4.41996,-3.6621 -8.20841,-3.66222 -3.95692,1.2e-4 -6.81934,1.22086 -8.58726,3.66222 -1.68381,2.44158 -2.5257,6.48265 -2.52567,12.12319 l 0,13.6386 m -25.88807,47.10366 0,-60.48969 c -10e-6,-11.70214 3.53592,-21.21547 10.6078,-28.54002 7.07183,-7.40848 16.20631,-11.11279 27.40347,-11.11293 11.44962,1.4e-4 20.24735,3.40979 26.3932,10.22895 6.14567,6.81942 9.21857,16.62741 9.21867,29.424 l 0,34.34905 -47.73507,0 0,25.38294 c -3e-5,7.07189 0.79976,11.99694 2.39939,14.77514 1.68373,2.69407 4.50406,4.04109 8.46097,4.04107 4.12521,2e-5 6.98763,-1.13653 8.58727,-3.40965 1.68372,-2.35726 2.52561,-7.49278 2.52566,-15.40656 l 0,-9.34496 25.76178,0 0,10.10266 c -10e-5,13.80699 -3.1572,24.20431 -9.47124,31.19197 -6.23004,6.98767 -15.57499,10.4815 -28.03488,10.48151 -11.19715,-1e-5 -20.03697,-3.70431 -26.51949,-11.11293 -6.39836,-7.4086 -9.59754,-17.59544 -9.59753,-30.56055"
           id="path2933" />
        <path
           d="m 1020.293,777.11284 24.2463,-5.43018 c 1.0945,7.82959 2.9466,13.47024 5.5565,16.92196 2.6098,3.36757 6.272,5.05135 10.9866,5.05133 3.5359,2e-5 6.3563,-1.05234 8.461,-3.15709 2.1047,-2.18888 3.1571,-5.09339 3.1571,-8.71354 0,-6.98764 -8.5031,-16.92191 -25.5092,-29.80285 -0.1684,-0.16832 -0.3789,-0.3367 -0.6314,-0.50514 -8.5031,-6.39828 -14.5647,-12.62825 -18.1848,-18.68992 -3.536,-6.06151 -5.3039,-12.9229 -5.3039,-20.58417 0,-11.02863 3.4096,-19.91055 10.2289,-26.64578 6.8193,-6.73497 15.7433,-10.10252 26.7721,-10.10266 10.3552,1.4e-4 18.7319,3.11513 25.1304,9.34497 6.3982,6.23009 9.9763,14.77525 10.734,25.6355 l -23.7412,5.68275 c -0.9262,-5.72474 -2.4836,-9.97627 -4.6725,-12.75461 -2.189,-2.86231 -5.0935,-4.29352 -8.7135,-4.29364 -3.3676,1.2e-4 -6.0196,1.09457 -7.9559,3.28337 -1.9364,2.10483 -2.9045,4.96725 -2.9045,8.58726 0,5.89332 5.9353,13.5124 17.8059,22.85728 3.1992,2.60993 5.6827,4.63046 7.4507,6.06159 9.3449,7.82963 15.7433,14.73311 19.1951,20.71046 3.4517,5.89327 5.1775,12.54418 5.1776,19.95276 -10e-5,11.11295 -3.4518,20.03696 -10.3552,26.77205 -6.8194,6.65092 -15.8697,9.97637 -27.1509,9.97638 -10.7762,-1e-5 -19.7002,-3.53593 -26.7721,-10.6078 -7.0718,-7.07185 -11.4076,-16.92193 -13.0071,-29.55028"
           id="path2935" />
        <path
           d="m 1121.951,785.19497 0,-85.3675 -15.5329,0 0,-20.96302 15.5329,0 0,-38.76896 25.0041,0 0,38.76896 18.6899,0 0,20.96302 -18.6899,0 0,82.96811 c -10e-5,3.87272 0.926,6.77723 2.7782,8.71355 1.9363,1.93636 4.7145,2.90454 8.3347,2.90452 0.8418,2e-5 1.8521,-0.0842 3.0308,-0.25257 1.2628,-0.25255 2.7361,-0.5893 4.4199,-1.01027 l 0.1263,21.97329 c -2.3574,0.7577 -4.7146,1.30493 -7.0719,1.64169 -2.3573,0.33675 -4.8409,0.50512 -7.4507,0.50513 -9.7659,-1e-5 -17.0904,-2.65195 -21.9733,-7.95585 -4.7988,-5.38807 -7.1981,-13.4281 -7.1981,-24.1201"
           id="path2937" />
      </g>
      <g
         transform="matrix(0.9957717,-0.09186252,0.09186252,0.9957717,1593.5407,334.50364)"
         id="g9905">
        <path
           d="m -1392.6751,191.78354 c -3.0272,3.63357 -107.0038,-40.20371 -111.594,-39.06474 -4.6117,1.14434 -76.62,88.62684 -81.0319,86.86236 -4.3912,-1.75621 5.17,-114.19028 2.6683,-118.20382 -2.5134,-4.03244 -107.966,-45.482827 -107.6512,-50.224019 0.3133,-4.718969 110.199,-30.36976 113.243,-33.989236 3.0584,-3.636522 9.8934,-116.736775 14.4999,-117.902509 4.5848,-1.16027 62.9367,95.420735 67.3197,97.197315 4.4036,1.784947 114.0805,-26.664467 116.6126,-22.6437384 2.5203,4.0018818 -71.302,89.3430174 -71.6372,94.0604804 -0.3368,4.73968 60.6122,100.257227 57.5708,103.907907 z"
           transform="translate(379.7051,132.52442)"
           id="path9907"
           style="fill:#ccff00;fill-opacity:1;stroke:none" />
        <path
           d="m -1392.6751,191.78354 c -11.3521,13.62589 -94.3809,-43.33589 -111.594,-39.06474 -17.2941,4.29126 -64.4874,93.47917 -81.0319,86.86236 -16.467,-6.5858 12.0496,-103.15305 2.6683,-118.20382 -9.4254,-15.12165 -108.8317,-32.444547 -107.6512,-50.224019 1.1749,-17.696131 101.8279,-20.416202 113.243,-33.989236 11.469,-13.636958 -2.7742,-113.531005 14.4999,-117.902509 17.193,-4.351013 50.8835,90.5351403 67.3197,97.197315 16.5136,6.693552 107.1171,-37.721472 116.6126,-22.6437384 9.451,15.0070567 -70.3801,76.3699954 -71.6372,94.0604804 -1.2629,17.773797 68.9763,90.217857 57.5708,103.907907 z"
           transform="translate(379.7051,132.52442)"
           id="path9911"
           style="fill:#000000;stroke:#000000;stroke-width:20;stroke-linecap:round;stroke-linejoin:round;stroke-miterlimit:4;stroke-opacity:1;stroke-dasharray:none;stroke-dashoffset:0" />
        <g
           transform="translate(-160.42608,-98.66526)"
           id="g9915"
           style="fill:#ffffff">
          <rect
             width="19.445547"
             height="46.761734"
             rx="22.871376"
             ry="12.753623"
             x="-1025.5424"
             y="267.23816"
             id="rect9917"
             style="fill:#ffffff;fill-opacity:1;stroke:none" />
          <rect
             width="19.445547"
             height="46.761734"
             rx="22.871376"
             ry="12.753623"
             x="-990.47107"
             y="267.23816"
             id="rect9919"
             style="fill:#ffffff;fill-opacity:1;stroke:none" />
        </g>
      </g>
      <g
         transform="matrix(0.9957717,-0.09186252,0.09186252,0.9957717,1593.5407,334.50364)"
         id="g9950">
        <g
           transform="translate(-160.42608,-98.66526)"
           id="g9956"
           style="fill:#ffffff">
          <path
             d="m -1015.8196,267.23816 c 5.3864,0 9.7228,5.68812 9.7228,12.75362 l 0,21.25449 c 0,7.06551 -4.3364,12.75362 -9.7228,12.75362 -5.3864,0 -9.7228,-5.68811 -9.7228,-12.75362 l 0,-21.25449 c 0,-7.0655 4.3364,-12.75362 9.7228,-12.75362 z"
             id="rect9958"
             style="fill:#ffffff;fill-opacity:1;stroke:none" />
          <path
             d="m -980.7483,267.23816 c 5.38642,0 9.72278,5.68812 9.72278,12.75362 l 0,21.25449 c 0,7.06551 -4.33636,12.75362 -9.72278,12.75362 -5.38641,0 -9.72277,-5.68811 -9.72277,-12.75362 l 0,-21.25449 c 0,-7.0655 4.33636,-12.75362 9.72277,-12.75362 z"
             id="rect9960"
             style="fill:#ffffff;fill-opacity:1;stroke:none" />
        </g>
      </g>
    </g>
  </g>
</svg>
