<?xml version="1.0" encoding="UTF-8" standalone="no"?>
<!-- Created with Inkscape (http://www.inkscape.org/) -->

<svg
   xmlns:svg="http://www.w3.org/2000/svg"
   xmlns="http://www.w3.org/2000/svg"
   version="1.1"
   width="763.8678"
   height="168"
   id="svg10200">
  <defs
     id="defs10202" />
  <g
     transform="translate(-149.20583,-1474.5134)"
     id="g4197"
     style="fill:#000000;fill-opacity:1">
    <g
       transform="matrix(1.0121397,0,0,1.0121397,-1.8113219,1033.5791)"
       id="g4171"
       style="fill:#000000;fill-opacity:1">
      <g
         id="g4173"
         style="fill:#000000;fill-opacity:1">
        <g
           id="text4175"
           style="font-size:225.4225769px;font-style:normal;font-variant:normal;font-weight:normal;font-stretch:condensed;text-align:start;line-height:125%;writing-mode:lr-tb;text-anchor:start;fill:#000000;fill-opacity:1;stroke:none;font-family:AlternateGothic2 BT;-inkscape-font-specification:AlternateGothic2 BT Condensed">
          <path
             d="m 354.00394,460.96175 0,-21.90385 22.12399,0 0,21.90385 -22.12399,0 m 0,137.25682 0,-117.44429 22.12399,0 0,117.44429 -22.12399,0"
             id="path5617"
             style="fill:#000000;fill-opacity:1" />
          <path
             d="m 435.89574,575.87443 0,-73.19629 c -1.61441,-1.68764 -3.19207,-2.93509 -4.733,-3.74237 -1.54101,-0.80708 -3.0453,-1.21066 -4.51285,-1.21076 -2.64171,10e-5 -4.76972,1.10079 -6.38404,3.30208 -1.54101,2.12811 -2.31149,5.13668 -2.31146,9.02571 l 0,60.64836 c -3e-5,3.66901 0.58701,6.31068 1.76111,7.92501 1.24742,1.61438 3.19199,2.42155 5.83369,2.42154 1.90784,10e-6 3.66895,-0.40357 5.28334,-1.21077 1.68769,-0.80716 3.37542,-2.12799 5.06321,-3.96251 m 0,13.09829 c -2.86186,3.66899 -6.01719,6.38404 -9.46599,8.14515 -3.44888,1.76111 -7.26463,2.64167 -11.44724,2.64167 -6.38406,0 -11.26381,-2.20139 -14.63926,-6.60418 -3.3021,-4.40277 -4.95314,-10.82349 -4.95313,-19.26218 l 0,-65.16121 c -1e-5,-9.61265 1.79779,-16.91393 5.39341,-21.90386 3.59559,-5.06308 8.84223,-7.59468 15.73995,-7.5948 3.37544,1.2e-4 6.71421,0.95405 10.01634,2.86181 3.30204,1.83461 6.42068,4.54966 9.35592,8.14515 l 0,-51.18237 21.90385,0 0,159.16067 -21.90385,0 0,-9.24585"
             id="path5619"
             style="fill:#000000;fill-opacity:1" />
          <path
             d="m 481.57462,598.21857 0,-159.16067 63.95045,0 0,23.00455 -39.40492,0 0,41.71638 28.39796,0 0,23.00456 -28.39796,0 0,71.43518 -24.54553,0"
             id="path5621"
             style="fill:#000000;fill-opacity:1" />
          <path
             d="m 604.63246,563.10636 0,-88.82618 c -6e-5,-5.50335 -1.06407,-9.61262 -3.19202,-12.3278 -2.12807,-2.78829 -5.28339,-4.1825 -9.46599,-4.18265 -4.18269,1.5e-4 -7.33801,1.39436 -9.46599,4.18265 -2.12804,2.71518 -3.19205,6.82445 -3.19201,12.3278 l 0,88.82618 c -4e-5,5.50351 1.06397,9.64946 3.19201,12.43787 2.12798,2.78845 5.2833,4.18266 9.46599,4.18264 4.1826,2e-5 7.33792,-1.39419 9.46599,-4.18264 2.12795,-2.78841 3.19196,-6.93436 3.19202,-12.43787 m -50.30182,-87.28521 c -10e-6,-12.5478 3.41215,-22.38068 10.23648,-29.49866 6.82429,-7.11767 16.25357,-10.67659 28.28789,-10.67675 11.3738,1.6e-4 20.36281,3.66915 26.96705,11.00696 6.67748,7.26474 10.01625,17.20769 10.01634,29.82887 l 0,81.56159 c -9e-5,13.94217 -3.30217,24.6923 -9.90627,32.25039 -6.53086,7.55812 -15.85008,11.33717 -27.95768,11.33718 -12.25445,-10e-6 -21.61036,-3.74237 -28.06775,-11.22711 -6.38405,-7.55809 -9.57607,-18.56505 -9.57606,-33.02088 l 0,-81.56159"
             id="path5623"
             style="fill:#000000;fill-opacity:1" />
          <path
             d="m 676.28777,462.06245 0,46.22924 9.68613,0 c 5.65019,9e-5 9.576,-1.68764 11.77745,-5.0632 2.20133,-3.44875 3.30203,-9.79609 3.30209,-19.04205 -6e-5,-8.36517 -1.17414,-14.12547 -3.52223,-17.28093 -2.27483,-3.22857 -6.42078,-4.84292 -12.43787,-4.84306 l -8.80557,0 m 0,69.23379 0,66.92233 -24.54552,0 0,-159.16067 35.99276,0 c 13.50182,1.6e-4 23.26131,3.63245 29.27852,10.89689 6.01706,7.26474 9.02562,18.9688 9.02571,35.11221 -9e-5,9.97975 -1.21085,18.05151 -3.6323,24.21532 -2.42161,6.16398 -6.38411,11.15379 -11.88752,14.96946 l 18.05142,73.96679 -25.42608,0 -15.18961,-66.92233 -11.66738,0"
             id="path5625"
             style="fill:#000000;fill-opacity:1" />
          <path
             d="m 743.21011,557.38274 0,-81.56159 c -10e-6,-12.5478 3.41215,-22.38068 10.23648,-29.49866 6.82429,-7.11767 16.25357,-10.67659 28.28789,-10.67675 11.59394,1.6e-4 20.3995,3.44901 26.41671,10.34655 6.01706,6.89784 9.02562,17.06092 9.02571,30.48928 l 0,14.63926 -23.66497,0 0,-16.84065 c -6e-5,-5.50335 -1.06407,-9.61262 -3.19202,-12.3278 -2.12807,-2.78829 -5.28339,-4.1825 -9.46599,-4.18265 -4.18269,1.5e-4 -7.33801,1.39436 -9.46598,4.18265 -2.12805,2.71518 -3.19206,6.82445 -3.19202,12.3278 l 0,88.82618 c -4e-5,5.50351 1.06397,9.64946 3.19202,12.43787 2.12797,2.78845 5.28329,4.18266 9.46598,4.18264 4.1826,2e-5 7.33792,-1.39419 9.46599,-4.18264 2.12795,-2.78841 3.19196,-6.93436 3.19202,-12.43787 l 0,-24.87573 -14.8594,0 0,-20.25281 38.52437,0 0,80.24075 -11.77745,0 -4.733,-11.00696 c -2.71511,4.91644 -5.98051,8.54874 -9.79619,10.89689 -3.8158,2.34815 -8.43872,3.52222 -13.86877,3.52223 -10.93362,-10e-6 -19.2989,-3.77906 -25.09588,-11.33718 -5.79701,-7.55809 -8.69551,-18.52835 -8.6955,-32.91081"
             id="path5627"
             style="fill:#000000;fill-opacity:1" />
          <path
             d="m 839.96129,598.21857 0,-159.16067 63.95045,0 0,23.00455 -39.40493,0 0,41.71638 28.39797,0 0,23.00456 -28.39797,0 0,47.55007 39.40493,0 0,23.88511 -63.95045,0"
             id="path5629"
             style="fill:#000000;fill-opacity:1" />
        </g>
        <g
           transform="matrix(1.4811139,0,0,1.4811139,113.51812,-369.98008)"
           id="g4179"
           style="fill:#000000;fill-opacity:1">
          <path
             d="M 77.53125,2.34375 C 77.019072,2.3354786 76.465116,2.3368418 75.875,2.375 56.991288,3.5960625 82.105266,23.795251 64.0625,29.5 46.019734,35.204748 54.96574,4.2368546 38.8125,14.09375 c -16.15324,9.856895 15.481197,16.063805 2.15625,29.5 C 27.643803,57.029945 21.159756,25.452868 11.4375,41.6875 c -9.7222561,16.234632 21.148293,7.035428 15.59375,25.125 -5.554543,18.089572 -25.9359797,-6.830711 -27,12.0625 -1.0640204,18.893211 22.011661,-3.598845 25.5,15 3.488339,18.59885 -26.18171956,5.963918 -18.34375,23.1875 7.83797,17.22358 17.799165,-13.40985 29.53125,1.4375 11.732085,14.84735 -20.350625,17.45426 -5.40625,29.0625 14.944375,11.60824 9.524348,-20.132 26.8125,-12.4375 17.288152,7.6945 -9.939704,24.91641 8.6875,28.25 18.627205,3.33359 -0.914962,-22.27894 17.96875,-23.5 18.88371,-1.22106 2.769734,26.70475 20.8125,21 18.04277,-5.70475 -11.15324,-19.29935 5,-29.15625 16.15324,-9.8569 14.86255,22.34245 28.1875,8.90625 13.32495,-13.4362 -18.84726,-11.89037 -9.125,-28.125 9.72226,-16.234632 23.53921,12.87082 29.09375,-5.21875 5.55454,-18.089572 -22.18902,-1.76304 -21.125,-20.65625 1.06402,-18.893211 26.80084,0.442595 23.3125,-18.15625 C 157.44916,49.869905 140.46297,77.223582 132.625,60 124.78703,42.776418 156.57584,47.909847 144.84375,33.0625 133.11166,18.215153 130.78813,50.358239 115.84375,38.75 100.89937,27.141761 131.4444,16.913251 114.15625,9.21875 96.868098,1.5242488 109.72095,31.083587 91.09375,27.75 73.048646,24.520587 93.408774,2.6001642 77.53125,2.34375 z M 73.9375,61.1875 c 2.58678,-0.238652 4.936981,2.294342 5.25,5.6875 l 0.9375,10.21875 c 0.313019,3.393173 -1.506955,6.323863 -4.09375,6.5625 -2.58678,0.238637 -4.936981,-2.325607 -5.25,-5.71875 L 69.84375,67.75 c -0.313019,-3.393158 1.50697,-6.323863 4.09375,-6.5625 z m -16.34375,1.53125 c 2.389077,0.0948 4.456531,2.537678 4.75,5.71875 l 0.9375,10.21875 c 0.313019,3.393158 -1.50697,6.292613 -4.09375,6.53125 -2.58678,0.238652 -4.936967,-2.294357 -5.25,-5.6875 L 53,69.28125 c -0.313048,-3.393158 1.53822,-6.292613 4.125,-6.53125 0.161675,-0.01492 0.309478,-0.03757 0.46875,-0.03125 z"
             transform="matrix(0.67516752,0,0,0.67516752,24.098164,543.93239)"
             id="path4181"
             style="fill:#000000;fill-opacity:1;stroke:none" />
          <g
             transform="translate(-110.98556,-129.29271)"
             id="g4183"
             style="fill:#000000;fill-opacity:1" />
        </g>
      </g>
    </g>
  </g>
</svg>
