<?xml version="1.0" encoding="UTF-8" standalone="no"?>
<!-- Created with Inkscape (http://www.inkscape.org/) -->

<svg
   xmlns:dc="http://purl.org/dc/elements/1.1/"
   xmlns:cc="http://creativecommons.org/ns#"
   xmlns:rdf="http://www.w3.org/1999/02/22-rdf-syntax-ns#"
   xmlns:svg="http://www.w3.org/2000/svg"
   xmlns="http://www.w3.org/2000/svg"
   xmlns:sodipodi="http://sodipodi.sourceforge.net/DTD/sodipodi-0.dtd"
   xmlns:inkscape="http://www.inkscape.org/namespaces/inkscape"
   version="1.1"
   width="352.79556"
   height="168.00005"
   id="svg10200"
   inkscape:version="0.47 r22583"
   sodipodi:docname="idforge-logo-message.svg">
  <metadata
     id="metadata5889">
    <rdf:RDF>
      <cc:Work
         rdf:about="">
        <dc:format>image/svg+xml</dc:format>
        <dc:type
           rdf:resource="http://purl.org/dc/dcmitype/StillImage" />
      </cc:Work>
    </rdf:RDF>
  </metadata>
  <sodipodi:namedview
     pagecolor="#ffffff"
     bordercolor="#666666"
     borderopacity="1"
     objecttolerance="10"
     gridtolerance="10"
     guidetolerance="10"
     inkscape:pageopacity="0"
     inkscape:pageshadow="2"
     inkscape:window-width="1360"
     inkscape:window-height="692"
     id="namedview5887"
     showgrid="false"
     inkscape:zoom="0.62656155"
     inkscape:cx="376.48363"
     inkscape:cy="-29.876978"
     inkscape:window-x="0"
     inkscape:window-y="25"
     inkscape:window-maximized="1"
     inkscape:current-layer="g4197" />
  <defs
     id="defs10202">
    <inkscape:perspective
       sodipodi:type="inkscape:persp3d"
       inkscape:vp_x="0 : 84 : 1"
       inkscape:vp_y="0 : 1000 : 0"
       inkscape:vp_z="427.18527 : 84 : 1"
       inkscape:persp3d-origin="213.59264 : 56 : 1"
       id="perspective5891" />
    <inkscape:perspective
       id="perspective5749"
       inkscape:persp3d-origin="0.5 : 0.33333333 : 1"
       inkscape:vp_z="1 : 0.5 : 1"
       inkscape:vp_y="0 : 1000 : 0"
       inkscape:vp_x="0 : 0.5 : 1"
       sodipodi:type="inkscape:persp3d" />
  </defs>
  <g
     id="g4197"
     style="fill:#000000;fill-opacity:1"
     transform="translate(-149.20583,-1564.922)">
    <g
       id="g4171"
       transform="matrix(0.467461,0,0,0.467461,79.457922,1361.2746)"
       style="fill:#000000;fill-opacity:1">
      <g
         id="g4173"
         style="fill:#000000;fill-opacity:1">
        <g
           style="font-size:225.42257689999999570px;font-style:normal;font-variant:normal;font-weight:normal;font-stretch:condensed;text-align:start;line-height:125%;writing-mode:lr-tb;text-anchor:start;fill:#000000;stroke:none;font-family:AlternateGothic2 BT;-inkscape-font-specification:AlternateGothic2 BT Condensed;fill-opacity:1"
           id="text4175">
          <path
             d="m 354.00394,460.96175 0,-21.90385 22.12399,0 0,21.90385 -22.12399,0 m 0,137.25682 0,-117.44429 22.12399,0 0,117.44429 -22.12399,0"
             id="path5617"
             style="fill:#000000;fill-opacity:1" />
          <path
             d="m 435.89574,575.87443 0,-73.19629 c -1.61441,-1.68764 -3.19207,-2.93509 -4.733,-3.74237 -1.54101,-0.80708 -3.0453,-1.21066 -4.51285,-1.21076 -2.64171,10e-5 -4.76972,1.10079 -6.38404,3.30208 -1.54101,2.12811 -2.31149,5.13668 -2.31146,9.02571 l 0,60.64836 c -3e-5,3.66901 0.58701,6.31068 1.76111,7.92501 1.24742,1.61438 3.19199,2.42155 5.83369,2.42154 1.90784,10e-6 3.66895,-0.40357 5.28334,-1.21077 1.68769,-0.80716 3.37542,-2.12799 5.06321,-3.96251 m 0,13.09829 c -2.86186,3.66899 -6.01719,6.38404 -9.46599,8.14515 -3.44888,1.76111 -7.26463,2.64167 -11.44724,2.64167 -6.38406,0 -11.26381,-2.20139 -14.63926,-6.60418 -3.3021,-4.40277 -4.95314,-10.82349 -4.95313,-19.26218 l 0,-65.16121 c -1e-5,-9.61265 1.79779,-16.91393 5.39341,-21.90386 3.59559,-5.06308 8.84223,-7.59468 15.73995,-7.5948 3.37544,1.2e-4 6.71421,0.95405 10.01634,2.86181 3.30204,1.83461 6.42068,4.54966 9.35592,8.14515 l 0,-51.18237 21.90385,0 0,159.16067 -21.90385,0 0,-9.24585"
             id="path5619"
             style="fill:#000000;fill-opacity:1" />
          <path
             d="m 481.57462,598.21857 0,-159.16067 63.95045,0 0,23.00455 -39.40492,0 0,41.71638 28.39796,0 0,23.00456 -28.39796,0 0,71.43518 -24.54553,0"
             id="path5621"
             style="fill:#000000;fill-opacity:1" />
          <path
             d="m 604.63246,563.10636 0,-88.82618 c -6e-5,-5.50335 -1.06407,-9.61262 -3.19202,-12.3278 -2.12807,-2.78829 -5.28339,-4.1825 -9.46599,-4.18265 -4.18269,1.5e-4 -7.33801,1.39436 -9.46599,4.18265 -2.12804,2.71518 -3.19205,6.82445 -3.19201,12.3278 l 0,88.82618 c -4e-5,5.50351 1.06397,9.64946 3.19201,12.43787 2.12798,2.78845 5.2833,4.18266 9.46599,4.18264 4.1826,2e-5 7.33792,-1.39419 9.46599,-4.18264 2.12795,-2.78841 3.19196,-6.93436 3.19202,-12.43787 m -50.30182,-87.28521 c -10e-6,-12.5478 3.41215,-22.38068 10.23648,-29.49866 6.82429,-7.11767 16.25357,-10.67659 28.28789,-10.67675 11.3738,1.6e-4 20.36281,3.66915 26.96705,11.00696 6.67748,7.26474 10.01625,17.20769 10.01634,29.82887 l 0,81.56159 c -9e-5,13.94217 -3.30217,24.6923 -9.90627,32.25039 -6.53086,7.55812 -15.85008,11.33717 -27.95768,11.33718 -12.25445,-10e-6 -21.61036,-3.74237 -28.06775,-11.22711 -6.38405,-7.55809 -9.57607,-18.56505 -9.57606,-33.02088 l 0,-81.56159"
             id="path5623"
             style="fill:#000000;fill-opacity:1" />
          <path
             d="m 676.28777,462.06245 0,46.22924 9.68613,0 c 5.65019,9e-5 9.576,-1.68764 11.77745,-5.0632 2.20133,-3.44875 3.30203,-9.79609 3.30209,-19.04205 -6e-5,-8.36517 -1.17414,-14.12547 -3.52223,-17.28093 -2.27483,-3.22857 -6.42078,-4.84292 -12.43787,-4.84306 l -8.80557,0 m 0,69.23379 0,66.92233 -24.54552,0 0,-159.16067 35.99276,0 c 13.50182,1.6e-4 23.26131,3.63245 29.27852,10.89689 6.01706,7.26474 9.02562,18.9688 9.02571,35.11221 -9e-5,9.97975 -1.21085,18.05151 -3.6323,24.21532 -2.42161,6.16398 -6.38411,11.15379 -11.88752,14.96946 l 18.05142,73.96679 -25.42608,0 -15.18961,-66.92233 -11.66738,0"
             id="path5625"
             style="fill:#000000;fill-opacity:1" />
          <path
             d="m 743.21011,557.38274 0,-81.56159 c -10e-6,-12.5478 3.41215,-22.38068 10.23648,-29.49866 6.82429,-7.11767 16.25357,-10.67659 28.28789,-10.67675 11.59394,1.6e-4 20.3995,3.44901 26.41671,10.34655 6.01706,6.89784 9.02562,17.06092 9.02571,30.48928 l 0,14.63926 -23.66497,0 0,-16.84065 c -6e-5,-5.50335 -1.06407,-9.61262 -3.19202,-12.3278 -2.12807,-2.78829 -5.28339,-4.1825 -9.46599,-4.18265 -4.18269,1.5e-4 -7.33801,1.39436 -9.46598,4.18265 -2.12805,2.71518 -3.19206,6.82445 -3.19202,12.3278 l 0,88.82618 c -4e-5,5.50351 1.06397,9.64946 3.19202,12.43787 2.12797,2.78845 5.28329,4.18266 9.46598,4.18264 4.1826,2e-5 7.33792,-1.39419 9.46599,-4.18264 2.12795,-2.78841 3.19196,-6.93436 3.19202,-12.43787 l 0,-24.87573 -14.8594,0 0,-20.25281 38.52437,0 0,80.24075 -11.77745,0 -4.733,-11.00696 c -2.71511,4.91644 -5.98051,8.54874 -9.79619,10.89689 -3.8158,2.34815 -8.43872,3.52222 -13.86877,3.52223 -10.93362,-10e-6 -19.2989,-3.77906 -25.09588,-11.33718 -5.79701,-7.55809 -8.69551,-18.52835 -8.6955,-32.91081"
             id="path5627"
             style="fill:#000000;fill-opacity:1" />
          <path
             d="m 839.96129,598.21857 0,-159.16067 63.95045,0 0,23.00455 -39.40493,0 0,41.71638 28.39797,0 0,23.00456 -28.39797,0 0,47.55007 39.40493,0 0,23.88511 -63.95045,0"
             id="path5629"
             style="fill:#000000;fill-opacity:1" />
        </g>
        <g
           transform="matrix(1.4811139,0,0,1.4811139,113.51812,-369.98008)"
           id="g4179"
           style="fill:#000000;fill-opacity:1">
          <path
             id="path4181"
             transform="matrix(0.67516752,0,0,0.67516752,24.098164,543.93239)"
             d="M 77.53125,2.34375 C 77.019072,2.3354786 76.465116,2.3368418 75.875,2.375 56.991288,3.5960625 82.105266,23.795251 64.0625,29.5 46.019734,35.204748 54.96574,4.2368546 38.8125,14.09375 c -16.15324,9.856895 15.481197,16.063805 2.15625,29.5 C 27.643803,57.029945 21.159756,25.452868 11.4375,41.6875 c -9.7222561,16.234632 21.148293,7.035428 15.59375,25.125 -5.554543,18.089572 -25.9359797,-6.830711 -27,12.0625 -1.0640204,18.893211 22.011661,-3.598845 25.5,15 3.488339,18.59885 -26.18171956,5.963918 -18.34375,23.1875 7.83797,17.22358 17.799165,-13.40985 29.53125,1.4375 11.732085,14.84735 -20.350625,17.45426 -5.40625,29.0625 14.944375,11.60824 9.524348,-20.132 26.8125,-12.4375 17.288152,7.6945 -9.939704,24.91641 8.6875,28.25 18.627205,3.33359 -0.914962,-22.27894 17.96875,-23.5 18.88371,-1.22106 2.769734,26.70475 20.8125,21 18.04277,-5.70475 -11.15324,-19.29935 5,-29.15625 16.15324,-9.8569 14.86255,22.34245 28.1875,8.90625 13.32495,-13.4362 -18.84726,-11.89037 -9.125,-28.125 9.72226,-16.234632 23.53921,12.87082 29.09375,-5.21875 5.55454,-18.089572 -22.18902,-1.76304 -21.125,-20.65625 1.06402,-18.893211 26.80084,0.442595 23.3125,-18.15625 C 157.44916,49.869905 140.46297,77.223582 132.625,60 124.78703,42.776418 156.57584,47.909847 144.84375,33.0625 133.11166,18.215153 130.78813,50.358239 115.84375,38.75 100.89937,27.141761 131.4444,16.913251 114.15625,9.21875 96.868098,1.5242488 109.72095,31.083587 91.09375,27.75 73.048646,24.520587 93.408774,2.6001642 77.53125,2.34375 z M 73.9375,61.1875 c 2.58678,-0.238652 4.936981,2.294342 5.25,5.6875 l 0.9375,10.21875 c 0.313019,3.393173 -1.506955,6.323863 -4.09375,6.5625 -2.58678,0.238637 -4.936981,-2.325607 -5.25,-5.71875 L 69.84375,67.75 c -0.313019,-3.393158 1.50697,-6.323863 4.09375,-6.5625 z m -16.34375,1.53125 c 2.389077,0.0948 4.456531,2.537678 4.75,5.71875 l 0.9375,10.21875 c 0.313019,3.393158 -1.50697,6.292613 -4.09375,6.53125 -2.58678,0.238652 -4.936967,-2.294357 -5.25,-5.6875 L 53,69.28125 c -0.313048,-3.393158 1.53822,-6.292613 4.125,-6.53125 0.161675,-0.01492 0.309478,-0.03757 0.46875,-0.03125 z"
             style="fill:#000000;fill-opacity:1;stroke:none" />
          <g
             id="g4183"
             transform="translate(-110.98556,-129.29271)"
             style="fill:#000000;fill-opacity:1" />
        </g>
      </g>
    </g>
    <g
       inkscape:export-ydpi="25.714287"
       inkscape:export-xdpi="25.714287"
       inkscape:export-filename="/home/al/Projects/idforge.git-trac/htdocs/idforge-logo.png"
       transform="matrix(0.86655184,0,0,0.86655184,-367.80744,1201.7168)"
       id="g4185"
       style="fill:#000000;fill-opacity:1">
      <g
         id="g4187"
         transform="translate(-27.592778,9.216618)"
         style="fill:#000000;fill-opacity:1">
        <g
           style="font-size:45.07634734999999893px;font-style:normal;font-variant:normal;font-weight:normal;font-stretch:semi-expanded;text-align:start;line-height:100%;writing-mode:lr-tb;text-anchor:start;fill:#000000;stroke:none;font-family:EngraversGothic BT;-inkscape-font-specification:EngraversGothic BT Semi-Expanded;fill-opacity:1"
           id="text4189">
          <path
             d="m 645.55325,536.87347 2.4211,1.80482 c -1.1152,2.11296 -2.64122,3.74169 -4.57807,4.8862 -1.93689,1.12985 -4.13789,1.69477 -6.60298,1.69477 -3.63899,0 -6.64701,-1.19587 -9.02408,-3.58762 -2.3624,-2.40641 -3.5436,-5.45112 -3.54359,-9.13412 -10e-6,-3.69766 1.18853,-6.74236 3.5656,-9.13413 2.37707,-2.40639 5.37775,-3.6096 9.00207,-3.60963 2.24499,3e-5 4.29192,0.49158 6.14077,1.47467 1.84881,0.98313 3.35282,2.38443 4.51204,4.2039 l -2.53115,1.80481 c -0.76303,-1.45263 -1.86352,-2.58981 -3.30149,-3.41154 -1.438,-0.82168 -3.04472,-1.23253 -4.82017,-1.23255 -2.72925,2e-5 -4.98893,0.93911 -6.77906,2.81727 -1.79015,1.86352 -2.68522,4.22592 -2.68521,7.0872 -10e-6,2.8613 0.89506,5.2237 2.68521,7.0872 1.79013,1.86351 4.04981,2.79526 6.77906,2.79526 1.90751,0 3.60227,-0.46954 5.08429,-1.40864 1.48198,-0.93908 2.7072,-2.31837 3.67566,-4.13787"
             id="path5651"
             style="fill:#000000;fill-opacity:1" />
          <path
             d="m 663.99758,542.41998 c 2.72921,0 4.9889,-0.93175 6.77906,-2.79526 1.79012,-1.8635 2.68519,-4.2259 2.68521,-7.0872 -2e-5,-2.87595 -0.89509,-5.24569 -2.68521,-7.10921 -1.77549,-1.86349 -4.03517,-2.79524 -6.77906,-2.79526 -2.72924,2e-5 -4.98893,0.93911 -6.77906,2.81727 -1.79015,1.86352 -2.68522,4.22592 -2.68521,7.0872 -10e-6,2.8613 0.89506,5.2237 2.68521,7.0872 1.79013,1.86351 4.04982,2.79526 6.77906,2.79526 m 0,2.83928 c -3.63899,0 -6.64701,-1.19587 -9.02407,-3.58762 -2.36241,-2.40641 -3.54361,-5.45112 -3.5436,-9.13412 -10e-6,-3.69766 1.18853,-6.74236 3.56561,-9.13413 2.37706,-2.40639 5.37775,-3.6096 9.00206,-3.60963 3.63896,3e-5 6.65432,1.20324 9.04608,3.60963 2.39172,2.40644 3.58759,5.45115 3.58762,9.13413 -3e-5,3.683 -1.1959,6.72771 -3.58762,9.13412 -2.37709,2.39175 -5.39245,3.58762 -9.04608,3.58762"
             id="path5653"
             style="fill:#000000;fill-opacity:1" />
          <path
             d="m 684.77496,531.15089 10.71884,0 c 1.526,10e-6 2.67785,-0.33747 3.45556,-1.01246 0.79233,-0.67495 1.18851,-1.6654 1.18853,-2.97134 -2e-5,-1.27655 -0.3962,-2.267 -1.18853,-2.97134 -0.77771,-0.71897 -1.8782,-1.07846 -3.30149,-1.07849 l -10.87291,0 0,8.03363 m -3.01536,13.47008 0,-24.29897 13.93229,0 c 2.37705,3e-5 4.24055,0.60163 5.59052,1.80482 1.34992,1.18856 2.02489,2.8393 2.02491,4.95223 -2e-5,1.76081 -0.52826,3.27216 -1.58471,4.53405 -1.0565,1.24724 -2.45046,2.02492 -4.18189,2.33305 l 6.07474,10.67482 -3.34551,0 -6.07474,-10.6308 -9.42025,0 0,10.6308 -3.01536,0"
             id="path5655"
             style="fill:#000000;fill-opacity:1" />
          <path
             d="m 711.71512,531.15089 10.71884,0 c 1.526,10e-6 2.67785,-0.33747 3.45556,-1.01246 0.79233,-0.67495 1.18851,-1.6654 1.18853,-2.97134 -2e-5,-1.27655 -0.3962,-2.267 -1.18853,-2.97134 -0.77771,-0.71897 -1.8782,-1.07846 -3.30149,-1.07849 l -10.87291,0 0,8.03363 m -3.01536,13.47008 0,-24.29897 13.93229,0 c 2.36238,3e-5 4.21855,0.58696 5.56851,1.7608 1.36459,1.17388 2.0469,2.78061 2.04693,4.82017 -3e-5,2.11297 -0.66033,3.82241 -1.9809,5.12832 -1.30594,1.30593 -3.05206,1.95889 -5.23836,1.95888 l -11.31311,0 0,10.6308 -3.01536,0"
             id="path5657"
             style="fill:#000000;fill-opacity:1" />
          <path
             d="m 745.87454,542.41998 c 2.72921,0 4.9889,-0.93175 6.77906,-2.79526 1.79011,-1.8635 2.68518,-4.2259 2.68521,-7.0872 -3e-5,-2.87595 -0.8951,-5.24569 -2.68521,-7.10921 -1.77549,-1.86349 -4.03518,-2.79524 -6.77906,-2.79526 -2.72925,2e-5 -4.98893,0.93911 -6.77906,2.81727 -1.79015,1.86352 -2.68522,4.22592 -2.68522,7.0872 0,2.8613 0.89507,5.2237 2.68522,7.0872 1.79013,1.86351 4.04981,2.79526 6.77906,2.79526 m 0,2.83928 c -3.63899,0 -6.64701,-1.19587 -9.02408,-3.58762 -2.3624,-2.40641 -3.5436,-5.45112 -3.5436,-9.13412 0,-3.69766 1.18854,-6.74236 3.56561,-9.13413 2.37707,-2.40639 5.37775,-3.6096 9.00207,-3.60963 3.63895,3e-5 6.65431,1.20324 9.04608,3.60963 2.39172,2.40644 3.58759,5.45115 3.58762,9.13413 -3e-5,3.683 -1.1959,6.72771 -3.58762,9.13412 -2.37709,2.39175 -5.39245,3.58762 -9.04608,3.58762"
             id="path5659"
             style="fill:#000000;fill-opacity:1" />
          <path
             d="m 766.65191,531.15089 10.71884,0 c 1.526,10e-6 2.67785,-0.33747 3.45556,-1.01246 0.79233,-0.67495 1.18851,-1.6654 1.18854,-2.97134 -3e-5,-1.27655 -0.39621,-2.267 -1.18854,-2.97134 -0.77771,-0.71897 -1.8782,-1.07846 -3.30149,-1.07849 l -10.87291,0 0,8.03363 m -3.01536,13.47008 0,-24.29897 13.93229,0 c 2.37705,3e-5 4.24056,0.60163 5.59052,1.80482 1.34992,1.18856 2.02489,2.8393 2.02492,4.95223 -3e-5,1.76081 -0.52827,3.27216 -1.58472,4.53405 -1.0565,1.24724 -2.45046,2.02492 -4.18189,2.33305 l 6.07475,10.67482 -3.34552,0 -6.07474,-10.6308 -9.42025,0 0,10.6308 -3.01536,0"
             id="path5661"
             style="fill:#000000;fill-opacity:1" />
          <path
             d="m 793.30595,535.24474 10.69683,0 -5.37043,-10.76286 -5.3264,10.76286 m -7.83554,9.37623 11.90738,-24.29897 2.50913,0 12.03944,24.29897 -3.27948,0 -3.3015,-6.53695 -13.42606,0 -3.21345,6.53695 -3.23546,0"
             id="path5663"
             style="fill:#000000;fill-opacity:1" />
          <path
             d="m 817.38482,544.62097 0,-21.50371 -10.21261,0 0,-2.79526 23.4846,0 0,2.79526 -10.23462,0 0,21.50371 -3.03737,0"
             id="path5665"
             style="fill:#000000;fill-opacity:1" />
          <path
             d="m 831.99941,544.62097 0,-24.29897 19.10463,0 0,2.79526 -16.08927,0 0,7.13122 9.7284,0 0,2.79527 -9.7284,0 0,8.78196 17.07971,0 0,2.79526 -20.09507,0"
             id="path5667"
             style="fill:#000000;fill-opacity:1" />
          <path
             d="m 871.66132,544.62097 0,-24.43103 3.05938,0 0,24.43103 -3.05938,0"
             id="path5669"
             style="fill:#000000;fill-opacity:1" />
          <path
             d="m 892.41669,523.11726 -7.39534,0 0,18.70845 7.39534,0 c 2.99333,0 5.34839,-0.83637 7.06519,-2.50913 1.71675,-1.68742 2.57514,-3.96178 2.57516,-6.82308 -2e-5,-2.81726 -0.87308,-5.08428 -2.61918,-6.80107 -1.74614,-1.71676 -4.08653,-2.57514 -7.02117,-2.57517 m 0,-2.79526 c 3.82971,3e-5 6.9111,1.12987 9.24417,3.38953 2.3477,2.25971 3.52156,5.2017 3.52159,8.82599 -3e-5,3.65365 -1.15188,6.58097 -3.45556,8.78196 -2.30373,2.201 -5.40712,3.30149 -9.3102,3.30149 l -10.4107,0 0,-24.29897 10.4107,0"
             id="path5671"
             style="fill:#000000;fill-opacity:1" />
          <path
             d="m 910.44283,544.62097 0,-24.29897 19.10463,0 0,2.79526 -16.08927,0 0,7.13122 9.7284,0 0,2.79527 -9.7284,0 0,8.78196 17.07971,0 0,2.79526 -20.09507,0"
             id="path5673"
             style="fill:#000000;fill-opacity:1" />
          <path
             d="m 935.00591,544.62097 0,-24.29897 1.58472,0 15.75911,18.1582 0,-18.1582 3.03737,0 0,24.29897 -1.54069,0 -15.82515,-18.15819 0,18.15819 -3.01536,0"
             id="path5675"
             style="fill:#000000;fill-opacity:1" />
          <path
             d="m 966.78825,544.62097 0,-21.50371 -10.21261,0 0,-2.79526 23.4846,0 0,2.79526 -10.23462,0 0,21.50371 -3.03737,0"
             id="path5677"
             style="fill:#000000;fill-opacity:1" />
          <path
             d="m 981.44688,544.62097 0,-24.43103 3.05938,0 0,24.43103 -3.05938,0"
             id="path5679"
             style="fill:#000000;fill-opacity:1" />
          <path
             d="m 996.01744,544.62097 0,-21.50371 -10.21261,0 0,-2.79526 23.48457,0 0,2.79526 -10.23459,0 0,21.50371 -3.03737,0"
             id="path5681"
             style="fill:#000000;fill-opacity:1" />
          <path
             d="m 1015.6723,544.62097 0,-12.17149 -10.9389,-12.12748 3.7857,0 8.6939,9.59633 8.6499,-9.59633 3.8297,0 -11.0049,12.1715 0,12.12747 -3.0154,0"
             id="path5683"
             style="fill:#000000;fill-opacity:1" />
        </g>
        <g
           style="font-size:75.75227356000000611px;font-style:normal;font-variant:normal;font-weight:normal;font-stretch:semi-expanded;text-align:start;line-height:100%;writing-mode:lr-tb;text-anchor:start;fill:#000000;stroke:none;font-family:EngraversGothic BT;-inkscape-font-specification:EngraversGothic BT Semi-Expanded;fill-opacity:1"
           id="text4193">
          <path
             d="m 625.88428,602.72107 0,-40.83521 32.10594,0 0,4.69753 -27.03853,0 0,11.98424 16.34888,0 0,4.69753 -16.34888,0 0,19.45591 -5.06741,0"
             id="path5632"
             style="fill:#000000;fill-opacity:1" />
          <path
             d="m 668.16204,580.08416 18.01336,0 c 2.5645,2e-5 4.50022,-0.56713 5.80718,-1.70147 1.33154,-1.13428 1.99734,-2.79876 1.99737,-4.99343 -3e-5,-2.1453 -0.66583,-3.80978 -1.99737,-4.99344 -1.30696,-1.20825 -3.15638,-1.8124 -5.54826,-1.81243 l -18.27228,0 0,13.50077 m -5.06741,22.63691 0,-40.83521 23.41366,0 c 3.99472,4e-5 7.1264,1.01106 9.39506,3.03305 2.26858,1.99741 3.40289,4.77154 3.40293,8.32239 -4e-5,2.9591 -0.88776,5.49897 -2.66316,7.61962 -1.77548,2.09603 -4.11808,3.40295 -7.0278,3.92077 l 10.2088,17.93938 -5.62224,0 -10.2088,-17.86541 -15.83104,0 0,17.86541 -5.06741,0"
             id="path5634"
             style="fill:#000000;fill-opacity:1" />
          <path
             d="m 712.95501,586.964 17.97637,0 -9.02518,-18.08733 -8.95119,18.08733 m -13.16788,15.75707 20.01073,-40.83521 4.21668,0 20.23267,40.83521 -5.51128,0 -5.54826,-10.98556 -22.56293,0 -5.40031,10.98556 -5.4373,0"
             id="path5636"
             style="fill:#000000;fill-opacity:1" />
          <path
             d="m 750.23933,602.72107 0,-40.83521 4.69753,0 16.49683,25.00417 16.6078,-25.00417 4.62355,0 0,40.83521 -5.03042,0 0,-31.88401 -16.20093,24.15343 -16.20093,-24.15343 0,31.88401 -4.99343,0"
             id="path5638"
             style="fill:#000000;fill-opacity:1" />
          <path
             d="m 804.61231,602.72107 0,-40.83521 32.10594,0 0,4.69753 -27.03853,0 0,11.98424 16.34888,0 0,4.69753 -16.34888,0 0,14.75838 28.70301,0 0,4.69753 -33.77042,0"
             id="path5640"
             style="fill:#000000;fill-opacity:1" />
          <path
             d="m 852.62327,602.72107 -13.31583,-40.83521 4.99343,0 10.13483,31.51413 10.39374,-31.51413 4.54958,0 10.35675,31.44015 10.17182,-31.44015 4.84548,0 -13.27884,40.83521 -3.69884,0 -10.76363,-32.8827 -10.65266,32.8827 -3.73583,0"
             id="path5642"
             style="fill:#000000;fill-opacity:1" />
          <path
             d="m 918.35167,599.02223 c 4.58654,0 8.38401,-1.56584 11.39243,-4.69753 3.00836,-3.13168 4.51255,-7.10176 4.51259,-11.91027 -4e-5,-4.83313 -1.50423,-8.81554 -4.51259,-11.94726 -2.98376,-3.13165 -6.78123,-4.69749 -11.39243,-4.69753 -4.58658,4e-5 -8.38405,1.57821 -11.39243,4.73452 -3.0084,3.13171 -4.51259,7.1018 -4.51259,11.91027 0,4.80851 1.50419,8.77859 4.51259,11.91027 3.00838,3.13169 6.80585,4.69753 11.39243,4.69753 m 0,4.7715 c -6.11543,0 -11.17051,-2.0097 -15.16525,-6.02911 -3.97009,-4.04406 -5.95514,-9.16078 -5.95513,-15.35019 -10e-6,-6.21403 1.99737,-11.33075 5.99212,-15.35019 3.99474,-4.04403 9.03749,-6.06606 15.12826,-6.0661 6.11539,4e-5 11.1828,2.02207 15.20224,6.0661 4.01937,4.0441 6.02907,9.16082 6.02911,15.35019 -4e-5,6.18941 -2.00974,11.30613 -6.02911,15.35019 -3.99478,4.01941 -9.06219,6.02911 -15.20224,6.02911"
             id="path5644"
             style="fill:#000000;fill-opacity:1" />
          <path
             d="m 953.26873,580.08416 18.01336,0 c 2.5645,2e-5 4.50022,-0.56713 5.80718,-1.70147 1.33155,-1.13428 1.99734,-2.79876 1.99738,-4.99343 -4e-5,-2.1453 -0.66583,-3.80978 -1.99738,-4.99344 -1.30696,-1.20825 -3.15638,-1.8124 -5.54826,-1.81243 l -18.27228,0 0,13.50077 m -5.06741,22.63691 0,-40.83521 23.41367,0 c 3.99471,4e-5 7.12639,1.01106 9.39505,3.03305 2.26858,1.99741 3.40289,4.77154 3.40294,8.32239 -5e-5,2.9591 -0.88777,5.49897 -2.66317,7.61962 -1.77548,2.09603 -4.11808,3.40295 -7.0278,3.92077 l 10.2088,17.93938 -5.62223,0 -10.20881,-17.86541 -15.83104,0 0,17.86541 -5.06741,0"
             id="path5646"
             style="fill:#000000;fill-opacity:1" />
          <path
             d="m 993.69708,602.72107 0,-40.90919 5.06742,0 0,20.38062 23.4137,-20.38062 6.6579,0 -16.4969,14.53645 19.0121,26.37274 -6.1401,0 -16.5338,-22.85884 -9.9129,8.32239 0,14.53645 -5.06742,0"
             id="path5648"
             style="fill:#000000;fill-opacity:1" />
        </g>
      </g>
    </g>
  </g>
</svg>
